%TF.GenerationSoftware,KiCad,Pcbnew,(6.0.0-0)*%
%TF.CreationDate,2022-01-01T21:21:08+01:00*%
%TF.ProjectId,athena,61746865-6e61-42e6-9b69-6361645f7063,V1.0.6*%
%TF.SameCoordinates,PX15cf7a1dPY4fa0663*%
%TF.FileFunction,Paste,Top*%
%TF.FilePolarity,Positive*%
%FSLAX46Y46*%
G04 Gerber Fmt 4.6, Leading zero omitted, Abs format (unit mm)*
G04 Created by KiCad (PCBNEW (6.0.0-0)) date 2022-01-01 21:21:08*
%MOMM*%
%LPD*%
G01*
G04 APERTURE LIST*
G04 Aperture macros list*
%AMRoundRect*
0 Rectangle with rounded corners*
0 $1 Rounding radius*
0 $2 $3 $4 $5 $6 $7 $8 $9 X,Y pos of 4 corners*
0 Add a 4 corners polygon primitive as box body*
4,1,4,$2,$3,$4,$5,$6,$7,$8,$9,$2,$3,0*
0 Add four circle primitives for the rounded corners*
1,1,$1+$1,$2,$3*
1,1,$1+$1,$4,$5*
1,1,$1+$1,$6,$7*
1,1,$1+$1,$8,$9*
0 Add four rect primitives between the rounded corners*
20,1,$1+$1,$2,$3,$4,$5,0*
20,1,$1+$1,$4,$5,$6,$7,0*
20,1,$1+$1,$6,$7,$8,$9,0*
20,1,$1+$1,$8,$9,$2,$3,0*%
G04 Aperture macros list end*
%ADD10RoundRect,0.250000X0.350000X-0.250000X0.350000X0.250000X-0.350000X0.250000X-0.350000X-0.250000X0*%
%ADD11RoundRect,0.175000X-0.175000X-0.175000X0.175000X-0.175000X0.175000X0.175000X-0.175000X0.175000X0*%
%ADD12R,0.700000X0.700000*%
%ADD13RoundRect,0.250000X0.250000X0.350000X-0.250000X0.350000X-0.250000X-0.350000X0.250000X-0.350000X0*%
%ADD14R,1.550000X0.600000*%
%ADD15R,1.800000X1.200000*%
%ADD16RoundRect,0.250000X0.475000X-0.250000X0.475000X0.250000X-0.475000X0.250000X-0.475000X-0.250000X0*%
%ADD17RoundRect,0.250000X0.262500X0.450000X-0.262500X0.450000X-0.262500X-0.450000X0.262500X-0.450000X0*%
%ADD18RoundRect,0.250000X-0.262500X-0.450000X0.262500X-0.450000X0.262500X0.450000X-0.262500X0.450000X0*%
%ADD19RoundRect,0.250000X-0.350000X0.250000X-0.350000X-0.250000X0.350000X-0.250000X0.350000X0.250000X0*%
%ADD20RoundRect,0.250000X-0.475000X0.250000X-0.475000X-0.250000X0.475000X-0.250000X0.475000X0.250000X0*%
%ADD21RoundRect,0.250000X-0.250000X-0.475000X0.250000X-0.475000X0.250000X0.475000X-0.250000X0.475000X0*%
%ADD22RoundRect,0.250000X-0.450000X0.262500X-0.450000X-0.262500X0.450000X-0.262500X0.450000X0.262500X0*%
%ADD23RoundRect,0.150000X-0.150000X0.587500X-0.150000X-0.587500X0.150000X-0.587500X0.150000X0.587500X0*%
%ADD24RoundRect,0.175000X0.175000X0.175000X-0.175000X0.175000X-0.175000X-0.175000X0.175000X-0.175000X0*%
%ADD25R,1.100000X1.800000*%
%ADD26RoundRect,0.175000X0.175000X-0.175000X0.175000X0.175000X-0.175000X0.175000X-0.175000X-0.175000X0*%
%ADD27RoundRect,0.250000X0.450000X-0.262500X0.450000X0.262500X-0.450000X0.262500X-0.450000X-0.262500X0*%
%ADD28RoundRect,0.250000X0.425000X-0.537500X0.425000X0.537500X-0.425000X0.537500X-0.425000X-0.537500X0*%
%ADD29RoundRect,0.135000X0.185000X-0.135000X0.185000X0.135000X-0.185000X0.135000X-0.185000X-0.135000X0*%
%ADD30RoundRect,0.250000X0.537500X0.425000X-0.537500X0.425000X-0.537500X-0.425000X0.537500X-0.425000X0*%
%ADD31R,0.600000X1.550000*%
%ADD32R,1.200000X1.800000*%
%ADD33R,1.400000X1.200000*%
%ADD34RoundRect,0.140000X-0.170000X0.140000X-0.170000X-0.140000X0.170000X-0.140000X0.170000X0.140000X0*%
%ADD35RoundRect,0.140000X0.140000X0.170000X-0.140000X0.170000X-0.140000X-0.170000X0.140000X-0.170000X0*%
%ADD36RoundRect,0.250000X1.450000X-0.312500X1.450000X0.312500X-1.450000X0.312500X-1.450000X-0.312500X0*%
%ADD37RoundRect,0.250000X0.250000X0.475000X-0.250000X0.475000X-0.250000X-0.475000X0.250000X-0.475000X0*%
%ADD38RoundRect,0.250000X0.300000X-0.300000X0.300000X0.300000X-0.300000X0.300000X-0.300000X-0.300000X0*%
%ADD39RoundRect,0.150000X0.000000X-0.750000X0.000000X0.750000X0.000000X0.750000X0.000000X-0.750000X0*%
%ADD40R,0.300000X1.800000*%
%ADD41R,1.800000X0.300000*%
%ADD42RoundRect,0.200000X-0.537500X0.000000X0.537500X0.000000X0.537500X0.000000X-0.537500X0.000000X0*%
%ADD43R,1.475000X0.400000*%
%ADD44R,0.800000X0.900000*%
%ADD45RoundRect,0.218750X-0.218750X-0.381250X0.218750X-0.381250X0.218750X0.381250X-0.218750X0.381250X0*%
%ADD46RoundRect,0.150000X-0.587500X-0.150000X0.587500X-0.150000X0.587500X0.150000X-0.587500X0.150000X0*%
%ADD47RoundRect,0.250000X-0.425000X0.537500X-0.425000X-0.537500X0.425000X-0.537500X0.425000X0.537500X0*%
%ADD48RoundRect,0.325000X0.205000X0.000000X-0.205000X0.000000X-0.205000X0.000000X0.205000X0.000000X0*%
%ADD49R,1.060000X0.650000*%
%ADD50RoundRect,0.218750X0.381250X-0.218750X0.381250X0.218750X-0.381250X0.218750X-0.381250X-0.218750X0*%
%ADD51RoundRect,0.140000X-0.021213X0.219203X-0.219203X0.021213X0.021213X-0.219203X0.219203X-0.021213X0*%
%ADD52RoundRect,0.135000X0.135000X0.185000X-0.135000X0.185000X-0.135000X-0.185000X0.135000X-0.185000X0*%
%ADD53R,0.900000X0.800000*%
G04 APERTURE END LIST*
D10*
%TO.C,D46*%
X193278124Y-85144499D03*
X193278124Y-81844499D03*
%TD*%
%TO.C,D66*%
X146843749Y-108956999D03*
X146843749Y-105656999D03*
%TD*%
D11*
%TO.C,D20*%
X354927499Y-99522624D03*
D12*
X354927499Y-98422624D03*
X353097499Y-98422624D03*
X353097499Y-99522624D03*
%TD*%
D13*
%TO.C,D3*%
X43218749Y-151158874D03*
X39918749Y-151158874D03*
%TD*%
D10*
%TO.C,D90*%
X323056249Y-147056999D03*
X323056249Y-143756999D03*
%TD*%
D14*
%TO.C,J1*%
X81904999Y-166181999D03*
X81904999Y-167181999D03*
X81904999Y-168181999D03*
X81904999Y-169181999D03*
D15*
X78029999Y-164581999D03*
X78029999Y-170781999D03*
%TD*%
D16*
%TO.C,C19*%
X43918749Y-100644499D03*
X43918749Y-98744499D03*
%TD*%
D17*
%TO.C,R87*%
X354924999Y-173108874D03*
X353099999Y-173108874D03*
%TD*%
%TO.C,R38*%
X271581249Y-115958874D03*
X269756249Y-115958874D03*
%TD*%
D16*
%TO.C,C22*%
X104000000Y-99350000D03*
X104000000Y-97450000D03*
%TD*%
D18*
%TO.C,R100*%
X354290624Y-188586999D03*
X356115624Y-188586999D03*
%TD*%
D19*
%TO.C,D1*%
X85906249Y-164444499D03*
X85906249Y-167744499D03*
%TD*%
D17*
%TO.C,R81*%
X162043749Y-154058874D03*
X160218749Y-154058874D03*
%TD*%
%TO.C,R66*%
X57268749Y-135008874D03*
X55443749Y-135008874D03*
%TD*%
D11*
%TO.C,D15*%
X259677499Y-99522624D03*
D12*
X259677499Y-98422624D03*
X257847499Y-98422624D03*
X257847499Y-99522624D03*
%TD*%
D18*
%TO.C,R102*%
X306665624Y-188586999D03*
X308490624Y-188586999D03*
%TD*%
D17*
%TO.C,R56*%
X262056249Y-135008874D03*
X260231249Y-135008874D03*
%TD*%
D10*
%TO.C,D59*%
X280193749Y-108956999D03*
X280193749Y-105656999D03*
%TD*%
D20*
%TO.C,C49*%
X88300000Y-172544019D03*
X88300000Y-174444019D03*
%TD*%
D10*
%TO.C,D55*%
X355203124Y-108956999D03*
X355203124Y-105656999D03*
%TD*%
%TO.C,D37*%
X356393749Y-85144499D03*
X356393749Y-81844499D03*
%TD*%
D21*
%TO.C,C26*%
X181500000Y-101800000D03*
X183400000Y-101800000D03*
%TD*%
D17*
%TO.C,R63*%
X135686749Y-135008874D03*
X133861749Y-135008874D03*
%TD*%
D20*
%TO.C,C42*%
X238350000Y-167744499D03*
X238350000Y-169644499D03*
%TD*%
D17*
%TO.C,R42*%
X201381249Y-112386999D03*
X199556249Y-112386999D03*
%TD*%
D22*
%TO.C,R95*%
X146300000Y-168031999D03*
X146300000Y-169856999D03*
%TD*%
%TO.C,R15*%
X91768749Y-132316374D03*
X91768749Y-134141374D03*
%TD*%
D10*
%TO.C,D104*%
X333918749Y-164916374D03*
X333918749Y-161616374D03*
%TD*%
%TO.C,D83*%
X137318749Y-128006999D03*
X137318749Y-124706999D03*
%TD*%
%TO.C,D86*%
X64690624Y-128006999D03*
X64690624Y-124706999D03*
%TD*%
%TO.C,D62*%
X223043749Y-108956999D03*
X223043749Y-105656999D03*
%TD*%
%TO.C,D110*%
X237331249Y-164916374D03*
X237331249Y-161616374D03*
%TD*%
D23*
%TO.C,Q2*%
X91518749Y-136691374D03*
X89618749Y-136691374D03*
X90568749Y-138566374D03*
%TD*%
D24*
%TO.C,D25*%
X272663124Y-168669499D03*
D12*
X272663124Y-169769499D03*
X274493124Y-169769499D03*
X274493124Y-168669499D03*
%TD*%
D25*
%TO.C,SW1*%
X33518749Y-141658874D03*
X33518749Y-147858874D03*
X37218749Y-141658874D03*
X37218749Y-147858874D03*
%TD*%
D10*
%TO.C,D73*%
X327818749Y-128006999D03*
X327818749Y-124706999D03*
%TD*%
%TO.C,D79*%
X213518749Y-128006999D03*
X213518749Y-124706999D03*
%TD*%
D18*
%TO.C,R101*%
X330478124Y-188586999D03*
X332303124Y-188586999D03*
%TD*%
D17*
%TO.C,R18*%
X326349999Y-92146374D03*
X324524999Y-92146374D03*
%TD*%
D20*
%TO.C,C46*%
X162150000Y-167744499D03*
X162150000Y-169644499D03*
%TD*%
D10*
%TO.C,D116*%
X92074999Y-160153874D03*
X92074999Y-156853874D03*
%TD*%
D18*
%TO.C,R110*%
X80856249Y-187958874D03*
X82681249Y-187958874D03*
%TD*%
D26*
%TO.C,D33*%
X110484374Y-171876374D03*
D12*
X109384374Y-171876374D03*
X109384374Y-173706374D03*
X110484374Y-173706374D03*
%TD*%
D21*
%TO.C,C28*%
X219600000Y-101800000D03*
X221500000Y-101800000D03*
%TD*%
D10*
%TO.C,D103*%
X331318749Y-164916374D03*
X331318749Y-161616374D03*
%TD*%
D24*
%TO.C,D26*%
X252422499Y-168669499D03*
D12*
X252422499Y-169769499D03*
X254252499Y-169769499D03*
X254252499Y-168669499D03*
%TD*%
D10*
%TO.C,D80*%
X194468749Y-128006999D03*
X194468749Y-124706999D03*
%TD*%
D16*
%TO.C,C21*%
X78318749Y-99044499D03*
X78318749Y-97144499D03*
%TD*%
D18*
%TO.C,R12*%
X45656249Y-156189499D03*
X47481249Y-156189499D03*
%TD*%
D21*
%TO.C,C25*%
X162450000Y-101800000D03*
X164350000Y-101800000D03*
%TD*%
D18*
%TO.C,R3*%
X49293749Y-91906999D03*
X51118749Y-91906999D03*
%TD*%
D10*
%TO.C,D87*%
X46831249Y-128006999D03*
X46831249Y-124706999D03*
%TD*%
D24*
%TO.C,D34*%
X84185000Y-172794499D03*
D12*
X84185000Y-173894499D03*
X86015000Y-173894499D03*
X86015000Y-172794499D03*
%TD*%
D10*
%TO.C,D107*%
X294481249Y-164916374D03*
X294481249Y-161616374D03*
%TD*%
%TO.C,D128*%
X46831249Y-181585124D03*
X46831249Y-178285124D03*
%TD*%
D11*
%TO.C,D16*%
X278727499Y-99522624D03*
D12*
X278727499Y-98422624D03*
X276897499Y-98422624D03*
X276897499Y-99522624D03*
%TD*%
D10*
%TO.C,D40*%
X315912499Y-88716374D03*
X315912499Y-85416374D03*
%TD*%
%TO.C,D114*%
X161131249Y-164916374D03*
X161131249Y-161616374D03*
%TD*%
%TO.C,D44*%
X232568749Y-85144499D03*
X232568749Y-81844499D03*
%TD*%
%TO.C,D49*%
X130841749Y-89906999D03*
X130841749Y-86606999D03*
%TD*%
D17*
%TO.C,R78*%
X276343749Y-154058874D03*
X274518749Y-154058874D03*
%TD*%
%TO.C,R62*%
X147756249Y-135008874D03*
X145931249Y-135008874D03*
%TD*%
D11*
%TO.C,D11*%
X183477499Y-99522624D03*
D12*
X183477499Y-98422624D03*
X181647499Y-98422624D03*
X181647499Y-99522624D03*
%TD*%
D27*
%TO.C,R90*%
X260481249Y-170131999D03*
X260481249Y-168306999D03*
%TD*%
%TO.C,R8*%
X60718749Y-93006999D03*
X60718749Y-91181999D03*
%TD*%
D17*
%TO.C,R48*%
X76318749Y-115958874D03*
X74493749Y-115958874D03*
%TD*%
D28*
%TO.C,C13*%
X63518749Y-94331999D03*
X63518749Y-91456999D03*
%TD*%
D17*
%TO.C,R7*%
X71231249Y-95494499D03*
X69406249Y-95494499D03*
%TD*%
D10*
%TO.C,D56*%
X337184999Y-108956999D03*
X337184999Y-105656999D03*
%TD*%
D29*
%TO.C,R4*%
X69324250Y-140849501D03*
X69324250Y-139829501D03*
%TD*%
D17*
%TO.C,R36*%
X309681249Y-115958874D03*
X307856249Y-115958874D03*
%TD*%
D18*
%TO.C,R10*%
X45656249Y-151158874D03*
X47481249Y-151158874D03*
%TD*%
D21*
%TO.C,C29*%
X238650000Y-101800000D03*
X240550000Y-101800000D03*
%TD*%
D10*
%TO.C,D118*%
X351631249Y-183966374D03*
X351631249Y-180666374D03*
%TD*%
D30*
%TO.C,C9*%
X54961749Y-140089499D03*
X52086749Y-140089499D03*
%TD*%
D10*
%TO.C,D58*%
X299243749Y-108956999D03*
X299243749Y-105656999D03*
%TD*%
D17*
%TO.C,R61*%
X166806249Y-135008874D03*
X164981249Y-135008874D03*
%TD*%
D11*
%TO.C,D7*%
X108468124Y-99522624D03*
D12*
X108468124Y-98422624D03*
X106638124Y-98422624D03*
X106638124Y-99522624D03*
%TD*%
D17*
%TO.C,R74*%
X238243749Y-154058874D03*
X236418749Y-154058874D03*
%TD*%
D11*
%TO.C,D13*%
X221577499Y-99522624D03*
D12*
X221577499Y-98422624D03*
X219747499Y-98422624D03*
X219747499Y-99522624D03*
%TD*%
D10*
%TO.C,D43*%
X251618749Y-85144499D03*
X251618749Y-81844499D03*
%TD*%
D20*
%TO.C,C37*%
X334250000Y-169824251D03*
X334250000Y-171724251D03*
%TD*%
D22*
%TO.C,R84*%
X318650000Y-168661751D03*
X318650000Y-170486751D03*
%TD*%
D10*
%TO.C,D51*%
X67071874Y-85144499D03*
X67071874Y-81844499D03*
%TD*%
D24*
%TO.C,D32*%
X133585000Y-172241374D03*
D12*
X133585000Y-173341374D03*
X135415000Y-173341374D03*
X135415000Y-172241374D03*
%TD*%
D22*
%TO.C,R96*%
X121100000Y-168631999D03*
X121100000Y-170456999D03*
%TD*%
D24*
%TO.C,D31*%
X158363124Y-168669499D03*
D12*
X158363124Y-169769499D03*
X160193124Y-169769499D03*
X160193124Y-168669499D03*
%TD*%
D24*
%TO.C,D22*%
X330335000Y-170621875D03*
D12*
X330335000Y-171721875D03*
X332165000Y-171721875D03*
X332165000Y-170621875D03*
%TD*%
D10*
%TO.C,D68*%
X103981249Y-113719499D03*
X103981249Y-110419499D03*
%TD*%
D31*
%TO.C,J3*%
X88812499Y-103319499D03*
X87812499Y-103319499D03*
X86812499Y-103319499D03*
X85812499Y-103319499D03*
D32*
X90412499Y-99444499D03*
X84212499Y-99444499D03*
%TD*%
D10*
%TO.C,D101*%
X133746874Y-147056999D03*
X133746874Y-143756999D03*
%TD*%
%TO.C,D94*%
X246856249Y-147056999D03*
X246856249Y-143756999D03*
%TD*%
D18*
%TO.C,R107*%
X94734374Y-188586999D03*
X96559374Y-188586999D03*
%TD*%
D11*
%TO.C,D19*%
X335877499Y-99522624D03*
D12*
X335877499Y-98422624D03*
X334047499Y-98422624D03*
X334047499Y-99522624D03*
%TD*%
D17*
%TO.C,R53*%
X319206249Y-135008874D03*
X317381249Y-135008874D03*
%TD*%
%TO.C,R59*%
X204906249Y-135008874D03*
X203081249Y-135008874D03*
%TD*%
D24*
%TO.C,D28*%
X215513124Y-168669499D03*
D12*
X215513124Y-169769499D03*
X217343124Y-169769499D03*
X217343124Y-168669499D03*
%TD*%
D21*
%TO.C,C30*%
X257700000Y-101800000D03*
X259600000Y-101800000D03*
%TD*%
D20*
%TO.C,C36*%
X350900000Y-175506999D03*
X350900000Y-177406999D03*
%TD*%
D33*
%TO.C,Y1*%
X72111749Y-157889499D03*
X69911749Y-157889499D03*
X69911749Y-159589499D03*
X72111749Y-159589499D03*
%TD*%
D11*
%TO.C,D4*%
X47746249Y-100713249D03*
D12*
X47746249Y-99613249D03*
X45916249Y-99613249D03*
X45916249Y-100713249D03*
%TD*%
D10*
%TO.C,D54*%
X357584374Y-108956999D03*
X357584374Y-105656999D03*
%TD*%
D22*
%TO.C,R103*%
X224050653Y-184114332D03*
X224050653Y-185939332D03*
%TD*%
D20*
%TO.C,C44*%
X199059375Y-167106999D03*
X199059375Y-169006999D03*
%TD*%
D11*
%TO.C,D14*%
X240627499Y-99522624D03*
D12*
X240627499Y-98422624D03*
X238797499Y-98422624D03*
X238797499Y-99522624D03*
%TD*%
D10*
%TO.C,D120*%
X326628124Y-185156999D03*
X326628124Y-181856999D03*
%TD*%
D17*
%TO.C,R72*%
X295393749Y-154058874D03*
X293568749Y-154058874D03*
%TD*%
%TO.C,R80*%
X181093749Y-154058874D03*
X179268749Y-154058874D03*
%TD*%
D10*
%TO.C,D126*%
X84931249Y-185156999D03*
X84931249Y-181856999D03*
%TD*%
D17*
%TO.C,R25*%
X184078249Y-92146374D03*
X182253249Y-92146374D03*
%TD*%
D34*
%TO.C,C15*%
X74124249Y-157339499D03*
X74124249Y-158299499D03*
%TD*%
D10*
%TO.C,D69*%
X64690624Y-108956999D03*
X64690624Y-105656999D03*
%TD*%
D18*
%TO.C,R19*%
X305474999Y-92146374D03*
X307299999Y-92146374D03*
%TD*%
D17*
%TO.C,R88*%
X304881249Y-172158874D03*
X303056249Y-172158874D03*
%TD*%
%TO.C,R70*%
X333493749Y-154058874D03*
X331668749Y-154058874D03*
%TD*%
D35*
%TO.C,C17*%
X77604249Y-144889499D03*
X76644249Y-144889499D03*
%TD*%
D17*
%TO.C,R67*%
X38218749Y-135008874D03*
X36393749Y-135008874D03*
%TD*%
D18*
%TO.C,R20*%
X286424999Y-92146374D03*
X288249999Y-92146374D03*
%TD*%
D36*
%TO.C,F1*%
X87325172Y-88162228D03*
X87325172Y-83887228D03*
%TD*%
D17*
%TO.C,R58*%
X223956249Y-135008874D03*
X222131249Y-135008874D03*
%TD*%
%TO.C,R29*%
X57268749Y-92146374D03*
X55443749Y-92146374D03*
%TD*%
D28*
%TO.C,C12*%
X94700000Y-95437500D03*
X94700000Y-92562500D03*
%TD*%
D10*
%TO.C,D57*%
X318293749Y-108956999D03*
X318293749Y-105656999D03*
%TD*%
D24*
%TO.C,D27*%
X234563124Y-168669499D03*
D12*
X234563124Y-169769499D03*
X236393124Y-169769499D03*
X236393124Y-168669499D03*
%TD*%
D10*
%TO.C,D53*%
X46831249Y-85144499D03*
X46831249Y-81844499D03*
%TD*%
D34*
%TO.C,C7*%
X67124249Y-143289499D03*
X67124249Y-144249499D03*
%TD*%
D11*
%TO.C,D17*%
X297777499Y-99522624D03*
D12*
X297777499Y-98422624D03*
X295947499Y-98422624D03*
X295947499Y-99522624D03*
%TD*%
D10*
%TO.C,D41*%
X296862499Y-88716374D03*
X296862499Y-85416374D03*
%TD*%
%TO.C,D113*%
X180181249Y-164916374D03*
X180181249Y-161616374D03*
%TD*%
D18*
%TO.C,R105*%
X142359374Y-188586999D03*
X144184374Y-188586999D03*
%TD*%
D27*
%TO.C,R91*%
X222381249Y-170131999D03*
X222381249Y-168306999D03*
%TD*%
%TO.C,R47*%
X113756249Y-113269499D03*
X113756249Y-111444499D03*
%TD*%
D10*
%TO.C,D72*%
X346868749Y-128006999D03*
X346868749Y-124706999D03*
%TD*%
D17*
%TO.C,R31*%
X76318749Y-92146374D03*
X74493749Y-92146374D03*
%TD*%
D35*
%TO.C,C5*%
X65004249Y-153289499D03*
X64044249Y-153289499D03*
%TD*%
D34*
%TO.C,C10*%
X77124249Y-157309499D03*
X77124249Y-158269499D03*
%TD*%
D11*
%TO.C,D21*%
X359683749Y-168578874D03*
D12*
X359683749Y-167478874D03*
X357853749Y-167478874D03*
X357853749Y-168578874D03*
%TD*%
D10*
%TO.C,D109*%
X256381249Y-164916374D03*
X256381249Y-161616374D03*
%TD*%
%TO.C,D89*%
X343296874Y-147056999D03*
X343296874Y-143756999D03*
%TD*%
D17*
%TO.C,R39*%
X252531249Y-115958874D03*
X250706249Y-115958874D03*
%TD*%
D10*
%TO.C,D85*%
X67071874Y-108956999D03*
X67071874Y-105656999D03*
%TD*%
%TO.C,D102*%
X67071874Y-128006999D03*
X67071874Y-124706999D03*
%TD*%
D17*
%TO.C,R64*%
X114431249Y-132694499D03*
X112606249Y-132694499D03*
%TD*%
D37*
%TO.C,C2*%
X44943749Y-95933249D03*
X43043749Y-95933249D03*
%TD*%
D10*
%TO.C,D52*%
X64690624Y-85144499D03*
X64690624Y-81844499D03*
%TD*%
D11*
%TO.C,D5*%
X66796249Y-100713249D03*
D12*
X66796249Y-99613249D03*
X64966249Y-99613249D03*
X64966249Y-100713249D03*
%TD*%
D10*
%TO.C,D125*%
X113506249Y-185156999D03*
X113506249Y-181856999D03*
%TD*%
D21*
%TO.C,C24*%
X143850000Y-101600000D03*
X145750000Y-101600000D03*
%TD*%
D10*
%TO.C,D112*%
X199231249Y-164916374D03*
X199231249Y-161616374D03*
%TD*%
D17*
%TO.C,R24*%
X204906249Y-92146374D03*
X203081249Y-92146374D03*
%TD*%
D10*
%TO.C,D74*%
X308768749Y-128006999D03*
X308768749Y-124706999D03*
%TD*%
D11*
%TO.C,D12*%
X202527499Y-99522624D03*
D12*
X202527499Y-98422624D03*
X200697499Y-98422624D03*
X200697499Y-99522624D03*
%TD*%
D38*
%TO.C,U4*%
X73364249Y-148809499D03*
X72004249Y-148809499D03*
X69284249Y-151529499D03*
X70644249Y-151529499D03*
X70644249Y-148809499D03*
X73364249Y-147449499D03*
X69284249Y-147449499D03*
X70644249Y-150169499D03*
X72004249Y-147449499D03*
X69284249Y-150169499D03*
X70644249Y-147449499D03*
X69284249Y-148809499D03*
X73364249Y-151529499D03*
X72004249Y-151529499D03*
X73364249Y-150169499D03*
X72004249Y-150169499D03*
D39*
X68574249Y-153489499D03*
D40*
X69074249Y-153489499D03*
X69574249Y-153489499D03*
X70074249Y-153489499D03*
X70574249Y-153489499D03*
X71074249Y-153489499D03*
X71574249Y-153489499D03*
X72074249Y-153489499D03*
X72574249Y-153489499D03*
X73074249Y-153489499D03*
X73574249Y-153489499D03*
X74074249Y-153489499D03*
D41*
X75324249Y-152239499D03*
X75324249Y-151739499D03*
X75324249Y-151239499D03*
X75324249Y-150739499D03*
X75324249Y-150239499D03*
X75324249Y-149739499D03*
X75324249Y-149239499D03*
X75324249Y-148739499D03*
X75324249Y-148239499D03*
X75324249Y-147739499D03*
X75324249Y-147239499D03*
X75324249Y-146739499D03*
D40*
X74074249Y-145489499D03*
X73574249Y-145489499D03*
X73074249Y-145489499D03*
X72574249Y-145489499D03*
X72074249Y-145489499D03*
X71574249Y-145489499D03*
X71074249Y-145489499D03*
X70574249Y-145489499D03*
X70074249Y-145489499D03*
X69574249Y-145489499D03*
X69074249Y-145489499D03*
X68574249Y-145489499D03*
D41*
X67324249Y-146739499D03*
X67324249Y-147239499D03*
X67324249Y-147739499D03*
X67324249Y-148239499D03*
X67324249Y-148739499D03*
X67324249Y-149239499D03*
X67324249Y-149739499D03*
X67324249Y-150239499D03*
X67324249Y-150739499D03*
X67324249Y-151239499D03*
X67324249Y-151739499D03*
X67324249Y-152239499D03*
%TD*%
D34*
%TO.C,C11*%
X75724249Y-157309499D03*
X75724249Y-158269499D03*
%TD*%
D10*
%TO.C,D42*%
X277812499Y-88716374D03*
X277812499Y-85416374D03*
%TD*%
D27*
%TO.C,R93*%
X184300000Y-170656999D03*
X184300000Y-168831999D03*
%TD*%
D21*
%TO.C,C27*%
X200550000Y-101800000D03*
X202450000Y-101800000D03*
%TD*%
D18*
%TO.C,R68*%
X112606249Y-129894499D03*
X114431249Y-129894499D03*
%TD*%
D22*
%TO.C,R82*%
X117300000Y-150631999D03*
X117300000Y-152456999D03*
%TD*%
D10*
%TO.C,D121*%
X256381249Y-185156999D03*
X256381249Y-181856999D03*
%TD*%
%TO.C,D127*%
X65881249Y-185156999D03*
X65881249Y-181856999D03*
%TD*%
D11*
%TO.C,D10*%
X164427499Y-99522624D03*
D12*
X164427499Y-98422624D03*
X162597499Y-98422624D03*
X162597499Y-99522624D03*
%TD*%
D10*
%TO.C,D124*%
X137318749Y-185156999D03*
X137318749Y-181856999D03*
%TD*%
%TO.C,D71*%
X351631249Y-128006999D03*
X351631249Y-124706999D03*
%TD*%
D35*
%TO.C,C3*%
X58454277Y-146139500D03*
X57494277Y-146139500D03*
%TD*%
D34*
%TO.C,C16*%
X67924249Y-158859499D03*
X67924249Y-159819499D03*
%TD*%
D18*
%TO.C,R104*%
X163790624Y-187894499D03*
X165615624Y-187894499D03*
%TD*%
D21*
%TO.C,C32*%
X295800000Y-101800000D03*
X297700000Y-101800000D03*
%TD*%
D10*
%TO.C,D111*%
X218281249Y-164916374D03*
X218281249Y-161616374D03*
%TD*%
D20*
%TO.C,C41*%
X256209375Y-167744499D03*
X256209375Y-169644499D03*
%TD*%
D17*
%TO.C,R69*%
X360887498Y-154058874D03*
X359062498Y-154058874D03*
%TD*%
%TO.C,R32*%
X38218749Y-92146374D03*
X36393749Y-92146374D03*
%TD*%
D27*
%TO.C,R109*%
X45640624Y-186064503D03*
X45640624Y-184239503D03*
%TD*%
D10*
%TO.C,D119*%
X348718749Y-183966374D03*
X348718749Y-180666374D03*
%TD*%
D17*
%TO.C,R23*%
X223956249Y-92146374D03*
X222131249Y-92146374D03*
%TD*%
%TO.C,R13*%
X38081249Y-173558874D03*
X36256249Y-173558874D03*
%TD*%
D42*
%TO.C,U3*%
X52111777Y-147764500D03*
D43*
X52111777Y-148414500D03*
X52111777Y-149064500D03*
X52111777Y-149714500D03*
X57836777Y-149714500D03*
X57836777Y-149064500D03*
X57836777Y-148414500D03*
X57836777Y-147764500D03*
%TD*%
D44*
%TO.C,Q3*%
X91524998Y-128133662D03*
X89624998Y-128133662D03*
X90574998Y-130133662D03*
%TD*%
D27*
%TO.C,R50*%
X42068749Y-113299499D03*
X42068749Y-111474499D03*
%TD*%
D17*
%TO.C,R51*%
X362068749Y-135008874D03*
X360243749Y-135008874D03*
%TD*%
D10*
%TO.C,D75*%
X289718749Y-128006999D03*
X289718749Y-124706999D03*
%TD*%
%TO.C,D78*%
X232568749Y-128006999D03*
X232568749Y-124706999D03*
%TD*%
D45*
%TO.C,FB2*%
X99017499Y-94881999D03*
X101142499Y-94881999D03*
%TD*%
D10*
%TO.C,D38*%
X351631249Y-85144499D03*
X351631249Y-81844499D03*
%TD*%
D26*
%TO.C,D35*%
X65050000Y-171876374D03*
D12*
X63950000Y-171876374D03*
X63950000Y-173706374D03*
X65050000Y-173706374D03*
%TD*%
D22*
%TO.C,R6*%
X77406249Y-136194499D03*
X77406249Y-138019499D03*
%TD*%
D17*
%TO.C,R22*%
X243006249Y-92146374D03*
X241181249Y-92146374D03*
%TD*%
%TO.C,R55*%
X281106249Y-135008874D03*
X279281249Y-135008874D03*
%TD*%
%TO.C,R26*%
X160265749Y-92146374D03*
X158440749Y-92146374D03*
%TD*%
D20*
%TO.C,C51*%
X49800000Y-171424251D03*
X49800000Y-173324251D03*
%TD*%
D10*
%TO.C,D84*%
X118268749Y-126816374D03*
X118268749Y-123516374D03*
%TD*%
%TO.C,D70*%
X46831249Y-108956999D03*
X46831249Y-105656999D03*
%TD*%
D17*
%TO.C,R98*%
X57268749Y-173108874D03*
X55443749Y-173108874D03*
%TD*%
D46*
%TO.C,U5*%
X69581249Y-91344499D03*
X69581249Y-93244499D03*
X71456249Y-92294499D03*
%TD*%
D17*
%TO.C,R45*%
X138231249Y-115958874D03*
X136406249Y-115958874D03*
%TD*%
D10*
%TO.C,D63*%
X203993749Y-108956999D03*
X203993749Y-105656999D03*
%TD*%
D21*
%TO.C,C34*%
X333900000Y-101800000D03*
X335800000Y-101800000D03*
%TD*%
D10*
%TO.C,D77*%
X251618749Y-128006999D03*
X251618749Y-124706999D03*
%TD*%
%TO.C,D92*%
X284956249Y-147056999D03*
X284956249Y-143756999D03*
%TD*%
D17*
%TO.C,R21*%
X266818749Y-92146374D03*
X264993749Y-92146374D03*
%TD*%
%TO.C,R28*%
X122165749Y-92146374D03*
X120340749Y-92146374D03*
%TD*%
%TO.C,R76*%
X142993749Y-154058874D03*
X141168749Y-154058874D03*
%TD*%
%TO.C,R44*%
X157281249Y-115958874D03*
X155456249Y-115958874D03*
%TD*%
D47*
%TO.C,C6*%
X88700000Y-164706999D03*
X88700000Y-167581999D03*
%TD*%
D17*
%TO.C,R49*%
X51315624Y-113577624D03*
X49490624Y-113577624D03*
%TD*%
D21*
%TO.C,C31*%
X276750000Y-101800000D03*
X278650000Y-101800000D03*
%TD*%
D20*
%TO.C,C43*%
X219300000Y-167744499D03*
X219300000Y-169644499D03*
%TD*%
D24*
%TO.C,D36*%
X45666249Y-172241374D03*
D12*
X45666249Y-173341374D03*
X47496249Y-173341374D03*
X47496249Y-172241374D03*
%TD*%
D17*
%TO.C,R86*%
X359687499Y-173108874D03*
X357862499Y-173108874D03*
%TD*%
%TO.C,R85*%
X134937499Y-166838249D03*
X133112499Y-166838249D03*
%TD*%
%TO.C,R73*%
X258484374Y-154058874D03*
X256659374Y-154058874D03*
%TD*%
D10*
%TO.C,D96*%
X208756249Y-147056999D03*
X208756249Y-143756999D03*
%TD*%
%TO.C,D97*%
X189706249Y-147056999D03*
X189706249Y-143756999D03*
%TD*%
D48*
%TO.C,U1*%
X47106249Y-93294499D03*
D49*
X47106249Y-92344499D03*
X47106249Y-91394499D03*
X44906249Y-91394499D03*
X44906249Y-92344499D03*
X44906249Y-93294499D03*
%TD*%
D21*
%TO.C,C14*%
X45618749Y-153758874D03*
X47518749Y-153758874D03*
%TD*%
D10*
%TO.C,D123*%
X161131249Y-185156999D03*
X161131249Y-181856999D03*
%TD*%
D22*
%TO.C,R14*%
X89368749Y-132316374D03*
X89368749Y-134141374D03*
%TD*%
D37*
%TO.C,C1*%
X51156249Y-94307000D03*
X49256249Y-94307000D03*
%TD*%
D10*
%TO.C,D47*%
X171846874Y-85144499D03*
X171846874Y-81844499D03*
%TD*%
%TO.C,D64*%
X184943749Y-108956999D03*
X184943749Y-105656999D03*
%TD*%
%TO.C,D105*%
X314721874Y-164916374D03*
X314721874Y-161616374D03*
%TD*%
D20*
%TO.C,C47*%
X137700000Y-173028394D03*
X137700000Y-174928394D03*
%TD*%
D10*
%TO.C,D91*%
X304006249Y-147056999D03*
X304006249Y-143756999D03*
%TD*%
D24*
%TO.C,D29*%
X195272499Y-167478874D03*
D12*
X195272499Y-168578874D03*
X197102499Y-168578874D03*
X197102499Y-167478874D03*
%TD*%
D10*
%TO.C,D122*%
X182562499Y-185156999D03*
X182562499Y-181856999D03*
%TD*%
D17*
%TO.C,R60*%
X185856249Y-135008874D03*
X184031249Y-135008874D03*
%TD*%
D10*
%TO.C,D93*%
X265906249Y-147056999D03*
X265906249Y-143756999D03*
%TD*%
D50*
%TO.C,FB1*%
X90968749Y-88421374D03*
X90968749Y-86296374D03*
%TD*%
D24*
%TO.C,D24*%
X292903749Y-167478874D03*
D12*
X292903749Y-168578874D03*
X294733749Y-168578874D03*
X294733749Y-167478874D03*
%TD*%
D17*
%TO.C,R30*%
X100131249Y-92146374D03*
X98306249Y-92146374D03*
%TD*%
D51*
%TO.C,C4*%
X66863660Y-155750088D03*
X66184838Y-156428910D03*
%TD*%
D17*
%TO.C,R75*%
X219193749Y-154058874D03*
X217368749Y-154058874D03*
%TD*%
%TO.C,R37*%
X290631249Y-115958874D03*
X288806249Y-115958874D03*
%TD*%
%TO.C,R40*%
X233481249Y-115958874D03*
X231656249Y-115958874D03*
%TD*%
D21*
%TO.C,C8*%
X43818749Y-148558874D03*
X45718749Y-148558874D03*
%TD*%
D17*
%TO.C,R43*%
X176331249Y-115958874D03*
X174506249Y-115958874D03*
%TD*%
D10*
%TO.C,D100*%
X131365624Y-147056999D03*
X131365624Y-143756999D03*
%TD*%
D52*
%TO.C,R2*%
X61084277Y-148339500D03*
X60064277Y-148339500D03*
%TD*%
D10*
%TO.C,D108*%
X275431249Y-164916374D03*
X275431249Y-161616374D03*
%TD*%
%TO.C,D88*%
X348059374Y-147056999D03*
X348059374Y-143756999D03*
%TD*%
D17*
%TO.C,R83*%
X348971874Y-173108874D03*
X347146874Y-173108874D03*
%TD*%
D10*
%TO.C,D67*%
X128984374Y-108956999D03*
X128984374Y-105656999D03*
%TD*%
D11*
%TO.C,D9*%
X145377499Y-99522624D03*
D12*
X145377499Y-98422624D03*
X143547499Y-98422624D03*
X143547499Y-99522624D03*
%TD*%
D17*
%TO.C,R35*%
X328731249Y-115958874D03*
X326906249Y-115958874D03*
%TD*%
D27*
%TO.C,R89*%
X279637499Y-169886751D03*
X279637499Y-168061751D03*
%TD*%
D10*
%TO.C,D48*%
X149815549Y-88716374D03*
X149815549Y-85416374D03*
%TD*%
D17*
%TO.C,R46*%
X128706249Y-115958874D03*
X126881249Y-115958874D03*
%TD*%
D53*
%TO.C,Q4*%
X352774998Y-152783662D03*
X352774998Y-154683662D03*
X354774998Y-153733662D03*
%TD*%
D10*
%TO.C,D117*%
X64800000Y-167050000D03*
X64800000Y-163750000D03*
%TD*%
D17*
%TO.C,R34*%
X347799999Y-115958874D03*
X345974999Y-115958874D03*
%TD*%
D27*
%TO.C,R108*%
X48021874Y-186064503D03*
X48021874Y-184239503D03*
%TD*%
D18*
%TO.C,R106*%
X118546874Y-188586999D03*
X120371874Y-188586999D03*
%TD*%
D22*
%TO.C,R94*%
X165231249Y-168306999D03*
X165231249Y-170131999D03*
%TD*%
D27*
%TO.C,R92*%
X203331249Y-170131999D03*
X203331249Y-168306999D03*
%TD*%
D10*
%TO.C,D76*%
X270668749Y-128006999D03*
X270668749Y-124706999D03*
%TD*%
D17*
%TO.C,R57*%
X243006249Y-135008874D03*
X241181249Y-135008874D03*
%TD*%
D21*
%TO.C,C35*%
X352950000Y-101800000D03*
X354850000Y-101800000D03*
%TD*%
D17*
%TO.C,R17*%
X343018749Y-92146374D03*
X341193749Y-92146374D03*
%TD*%
D10*
%TO.C,D98*%
X170656249Y-147056999D03*
X170656249Y-143756999D03*
%TD*%
D37*
%TO.C,C50*%
X65470001Y-176144499D03*
X63570001Y-176144499D03*
%TD*%
D21*
%TO.C,C23*%
X126650000Y-101800000D03*
X128550000Y-101800000D03*
%TD*%
D19*
%TO.C,D2*%
X66518749Y-91244499D03*
X66518749Y-94544499D03*
%TD*%
D27*
%TO.C,R99*%
X241431249Y-170131999D03*
X241431249Y-168306999D03*
%TD*%
D10*
%TO.C,D81*%
X175418749Y-128006999D03*
X175418749Y-124706999D03*
%TD*%
D17*
%TO.C,R27*%
X141215749Y-92146374D03*
X139390749Y-92146374D03*
%TD*%
D20*
%TO.C,C45*%
X180009375Y-167744499D03*
X180009375Y-169644499D03*
%TD*%
D10*
%TO.C,D65*%
X165893749Y-108956999D03*
X165893749Y-105656999D03*
%TD*%
%TO.C,D50*%
X108743749Y-85144499D03*
X108743749Y-81844499D03*
%TD*%
D37*
%TO.C,C48*%
X111250000Y-175944499D03*
X109350000Y-175944499D03*
%TD*%
D17*
%TO.C,R77*%
X129896874Y-150486999D03*
X128071874Y-150486999D03*
%TD*%
%TO.C,R52*%
X338256249Y-135008874D03*
X336431249Y-135008874D03*
%TD*%
D20*
%TO.C,C40*%
X276450000Y-167744499D03*
X276450000Y-169644499D03*
%TD*%
D17*
%TO.C,R33*%
X366831249Y-115958874D03*
X365006249Y-115958874D03*
%TD*%
D10*
%TO.C,D106*%
X312340624Y-164916374D03*
X312340624Y-161616374D03*
%TD*%
D17*
%TO.C,R54*%
X300156249Y-135008874D03*
X298331249Y-135008874D03*
%TD*%
D18*
%TO.C,R5*%
X39856249Y-148558874D03*
X41681249Y-148558874D03*
%TD*%
D10*
%TO.C,D115*%
X138509374Y-164916374D03*
X138509374Y-161616374D03*
%TD*%
D20*
%TO.C,C38*%
X314050000Y-169824251D03*
X314050000Y-171724251D03*
%TD*%
D10*
%TO.C,D61*%
X242093749Y-108956999D03*
X242093749Y-105656999D03*
%TD*%
D17*
%TO.C,R41*%
X220781249Y-112386999D03*
X218956249Y-112386999D03*
%TD*%
D22*
%TO.C,R65*%
X70168749Y-129846374D03*
X70168749Y-131671374D03*
%TD*%
D35*
%TO.C,C18*%
X78454277Y-146939500D03*
X77494277Y-146939500D03*
%TD*%
D10*
%TO.C,D82*%
X156368749Y-128006999D03*
X156368749Y-124706999D03*
%TD*%
D11*
%TO.C,D18*%
X316827499Y-99522624D03*
D12*
X316827499Y-98422624D03*
X314997499Y-98422624D03*
X314997499Y-99522624D03*
%TD*%
D46*
%TO.C,Q1*%
X40031249Y-143208874D03*
X40031249Y-145108874D03*
X41906249Y-144158874D03*
%TD*%
D17*
%TO.C,R16*%
X366831249Y-92146374D03*
X365006249Y-92146374D03*
%TD*%
D10*
%TO.C,D45*%
X213518749Y-85144499D03*
X213518749Y-81844499D03*
%TD*%
%TO.C,D99*%
X151606249Y-147056999D03*
X151606249Y-143756999D03*
%TD*%
D24*
%TO.C,D30*%
X176222499Y-167478874D03*
D12*
X176222499Y-168578874D03*
X178052499Y-168578874D03*
X178052499Y-167478874D03*
%TD*%
D16*
%TO.C,C20*%
X62918749Y-100644499D03*
X62918749Y-98744499D03*
%TD*%
D21*
%TO.C,C33*%
X314850000Y-101800000D03*
X316750000Y-101800000D03*
%TD*%
D10*
%TO.C,D95*%
X227806249Y-147056999D03*
X227806249Y-143756999D03*
%TD*%
D20*
%TO.C,C39*%
X297050000Y-167421875D03*
X297050000Y-169321875D03*
%TD*%
D17*
%TO.C,R97*%
X94178124Y-169536999D03*
X92353124Y-169536999D03*
%TD*%
D24*
%TO.C,D23*%
X309735000Y-170621875D03*
D12*
X309735000Y-171721875D03*
X311565000Y-171721875D03*
X311565000Y-170621875D03*
%TD*%
D52*
%TO.C,R1*%
X61084277Y-150339500D03*
X60064277Y-150339500D03*
%TD*%
D10*
%TO.C,D39*%
X334962499Y-88716374D03*
X334962499Y-85416374D03*
%TD*%
D17*
%TO.C,R79*%
X200143749Y-154058874D03*
X198318749Y-154058874D03*
%TD*%
D10*
%TO.C,D60*%
X261143749Y-108956999D03*
X261143749Y-105656999D03*
%TD*%
D17*
%TO.C,R71*%
X314443749Y-154058874D03*
X312618749Y-154058874D03*
%TD*%
D26*
%TO.C,D6*%
X85068749Y-106579499D03*
D12*
X83968749Y-106579499D03*
X83968749Y-108409499D03*
X85068749Y-108409499D03*
%TD*%
D11*
%TO.C,D8*%
X128315000Y-99550000D03*
D12*
X128315000Y-98450000D03*
X126485000Y-98450000D03*
X126485000Y-99550000D03*
%TD*%
M02*
