M48
; DRILL file {KiCad (6.0.0-0)} date 2022 January 01, Saturday 21:21:09
; FORMAT={-:-/ absolute / inch / decimal}
; #@! TF.CreationDate,2022-01-01T21:21:09+01:00
; #@! TF.GenerationSoftware,Kicad,Pcbnew,(6.0.0-0)
; #@! TF.FileFunction,Plated,1,2,PTH
FMAT,2
INCH
; #@! TA.AperFunction,Plated,PTH,ViaDrill
T1C0.0118
; #@! TA.AperFunction,Plated,PTH,ComponentDrill
T2C0.0118
; #@! TA.AperFunction,Plated,PTH,ViaDrill
T3C0.0197
; #@! TA.AperFunction,Plated,PTH,ViaDrill
T4C0.0200
; #@! TA.AperFunction,Plated,PTH,ComponentDrill
T5C0.0236
; #@! TA.AperFunction,Plated,PTH,ComponentDrill
T6C0.0300
; #@! TA.AperFunction,Plated,PTH,ComponentDrill
T7C0.0390
; #@! TA.AperFunction,Plated,PTH,ComponentDrill
T8C0.0400
; #@! TA.AperFunction,Plated,PTH,ComponentDrill
T9C0.0600
; #@! TA.AperFunction,Plated,PTH,ComponentDrill
T10C0.0984
; #@! TA.AperFunction,Plated,PTH,ComponentDrill
T11C0.1575
%
G90
G05
T1
X1.2168Y-3.0352
X1.8939Y-3.5549
X2.172Y-6.0614
X2.2903Y-5.7063
X2.3233Y-5.9181
X2.3376Y-6.7533
X2.3627Y-5.8787
X2.3743Y-5.6415
X2.4161Y-6.1322
X2.4399Y-5.8401
X2.4399Y-5.9189
X2.4715Y-7.4393
X2.5475Y-4.4132
X2.5475Y-4.9801
X2.5592Y-6.0744
X2.5652Y-5.7621
X2.5718Y-5.9189
X2.6049Y-5.6791
X2.6309Y-6.0901
X2.642Y-3.2872
X2.642Y-4.9801
X2.7072Y-5.631
X2.7136Y-5.3992
X2.7136Y-5.4622
X2.7286Y-4.2951
X2.7352Y-5.5803
X2.7529Y-5.4307
X2.7529Y-5.4307
X2.7844Y-5.4307
X2.7844Y-5.4307
X2.8238Y-5.3992
X2.8238Y-5.4622
X2.8238Y-6.1236
X2.8993Y-5.5987
X2.9173Y-5.6561
X2.9806Y-6.051
X3.0175Y-5.6649
X3.0521Y-5.8598
X3.075Y-6.1927
X3.1065Y-5.3581
X3.1437Y-5.8638
X3.1774Y-5.4289
X3.2586Y-6.1637
X3.2739Y-5.6361
X3.2787Y-6.4678
X3.3905Y-3.0116
X3.3964Y-4.1969
X3.4001Y-3.1703
X3.4218Y-3.8995
X3.4511Y-3.0717
X3.4532Y-3.8995
X3.4846Y-3.0116
X3.5657Y-5.324
X3.7269Y-3.4069
X3.9254Y-4.8541
X4.0315Y-3.874
X4.1939Y-5.5547
X4.3531Y-5.4865
X4.5396Y-5.5234
X4.6191Y-5.4287
X4.9338Y-3.9407
X5.0128Y-4.413
X11.5007Y-7.0226
X14.0224Y-6.5968
X14.0539Y-3.9748
T2
X2.7293Y-5.8067
X2.7293Y-5.846
X2.7293Y-5.8854
X2.7293Y-5.9248
X2.7293Y-5.9642
X2.7687Y-5.8067
X2.7687Y-5.846
X2.7687Y-5.8854
X2.7687Y-5.9248
X2.7687Y-5.9642
X2.808Y-5.8067
X2.808Y-5.846
X2.808Y-5.8854
X2.808Y-5.9248
X2.808Y-5.9642
X2.8474Y-5.8067
X2.8474Y-5.846
X2.8474Y-5.8854
X2.8474Y-5.9248
X2.8474Y-5.9642
X2.8868Y-5.8067
X2.8868Y-5.846
X2.8868Y-5.8854
X2.8868Y-5.9248
X2.8868Y-5.9642
X3.0445Y-6.4639
X3.0445Y-6.4954
X3.0445Y-6.708
X3.0445Y-6.7394
X3.072Y-6.4658
X3.072Y-6.4934
X3.072Y-6.7099
X3.072Y-6.7375
X3.0996Y-6.4639
X3.0996Y-6.4954
X3.0996Y-6.708
X3.0996Y-6.7394
X3.2997Y-3.8876
X3.2997Y-3.9427
X3.3017Y-3.9151
X3.3292Y-3.9151
X3.3312Y-3.8876
X3.3312Y-3.9427
X3.5438Y-3.8876
X3.5438Y-3.9427
X3.5458Y-3.9151
X3.5733Y-3.9151
X3.5753Y-3.8876
X3.5753Y-3.9427
T3
X1.7214Y-4.7673
X1.7916Y-3.8462
X1.8789Y-5.4287
X2.1643Y-5.8559
X2.2089Y-3.7596
X2.2411Y-5.5153
X2.3113Y-3.7596
X2.3907Y-4.7358
X3.0128Y-4.7516
X3.3024Y-3.1056
X3.4375Y-3.2003
X3.4921Y-6.4148
X3.5307Y-3.0741
X3.5622Y-3.2946
X3.5869Y-4.9186
X11.0714Y-3.195
T4
X3.2866Y-3.0347
X3.578Y-3.0347
T6
X1.4034Y-6.3669
X1.4034Y-6.5669
X1.4084Y-6.2669
X1.4084Y-6.4669
X1.4084Y-6.6669
X1.5034Y-6.3669
X1.5034Y-6.5669
X1.5084Y-6.2669
X1.5084Y-6.4669
X1.5084Y-6.6669
X3.2875Y-4.4051
X3.3875Y-4.4051
X3.4875Y-4.4051
X3.5875Y-4.4051
T7
X1.5187Y-3.4872
X1.5187Y-4.4247
X1.5187Y-5.1747
X1.5187Y-7.4247
X2.2687Y-3.4872
X2.2687Y-4.4247
X2.2687Y-5.1747
X2.2687Y-6.6747
X2.2687Y-7.4247
X3.0187Y-3.4872
X3.0187Y-4.4247
X3.0187Y-5.1747
X3.0187Y-7.4247
X3.95Y-7.4247
X3.9562Y-3.4872
X3.9562Y-4.4247
X3.9562Y-6.6747
X4.1437Y-5.1747
X4.1437Y-7.4247
X4.2Y-5.2997
X4.3312Y-4.4247
X4.425Y-5.9247
X4.6125Y-6.6747
X4.7062Y-3.4872
X4.7062Y-4.4247
X4.8875Y-7.4247
X4.8937Y-5.9247
X4.9406Y-3.4872
X4.9875Y-6.6747
X5.0812Y-5.1747
X5.0812Y-7.4247
X5.4562Y-3.4872
X5.4562Y-4.4247
X5.6437Y-5.9247
X5.6906Y-3.4872
X5.825Y-7.4247
X5.8312Y-5.1747
X6.0187Y-6.6747
X6.0187Y-7.4247
X6.2062Y-3.4872
X6.2062Y-4.4247
X6.3937Y-5.9247
X6.4406Y-3.4872
X6.5812Y-5.1747
X6.7687Y-6.6747
X6.8625Y-7.4247
X6.9562Y-4.4247
X7.1437Y-5.9247
X7.1906Y-3.4872
X7.2312Y-3.4872
X7.3312Y-5.1747
X7.5187Y-6.6747
X7.7062Y-4.4247
X7.8937Y-5.9247
X8.0812Y-3.4872
X8.0812Y-5.1747
X8.2687Y-6.6747
X8.4562Y-4.4247
X8.6437Y-5.9247
X8.8312Y-3.4872
X8.8312Y-5.1747
X9.0187Y-6.6747
X9.2062Y-4.4247
X9.2062Y-7.4247
X9.3937Y-5.9247
X9.5812Y-3.4872
X9.5812Y-5.1747
X9.675Y-7.4247
X9.7687Y-6.6747
X9.9562Y-4.4247
X10.1437Y-5.9247
X10.3312Y-3.4872
X10.3312Y-5.1747
X10.5187Y-6.6747
X10.7062Y-3.4872
X10.7062Y-4.4247
X10.8937Y-5.9247
X11.0812Y-5.1747
X11.1687Y-3.4872
X11.2687Y-6.6747
X11.4562Y-3.4872
X11.4562Y-4.4247
X11.6437Y-5.9247
X11.8312Y-5.1747
X11.9187Y-3.4872
X12.0187Y-6.6747
X12.2062Y-3.4872
X12.2062Y-4.4247
X12.3025Y-7.4247
X12.3937Y-5.9247
X12.4875Y-7.4247
X12.5812Y-5.1747
X12.6687Y-3.4872
X12.7687Y-6.6747
X12.9562Y-3.4872
X12.9562Y-4.4247
X13.1437Y-5.9247
X13.2312Y-7.4247
X13.3312Y-5.1747
X13.425Y-7.4247
X13.5187Y-3.4872
X13.5187Y-6.6747
X13.7062Y-4.4247
X13.9875Y-6.6747
X14.075Y-5.9247
X14.1687Y-7.4247
X14.2687Y-5.1747
X14.3625Y-5.9247
X14.3625Y-6.6747
X14.3625Y-7.4247
X14.4562Y-3.4872
X14.4562Y-4.4247
T8
X1.4187Y-3.4872
X1.4187Y-4.4247
X1.4187Y-5.1747
X1.4187Y-7.4247
X2.1687Y-3.4872
X2.1687Y-4.4247
X2.1687Y-5.1747
X2.1687Y-6.6747
X2.1687Y-7.4247
X2.9187Y-3.4872
X2.9187Y-4.4247
X2.9187Y-5.1747
X2.9187Y-7.4247
X3.8562Y-3.4872
X3.8562Y-4.4247
X3.8562Y-6.6747
X4.0437Y-5.1747
X4.0437Y-7.4247
X4.05Y-7.4247
X4.2Y-5.3997
X4.2312Y-4.4247
X4.325Y-5.9247
X4.5125Y-6.6747
X4.6062Y-3.4872
X4.6062Y-4.4247
X4.7937Y-5.9247
X4.8406Y-3.4872
X4.8875Y-6.6747
X4.9812Y-5.1747
X4.9812Y-7.4247
X4.9875Y-7.4247
X5.3562Y-3.4872
X5.3562Y-4.4247
X5.5437Y-5.9247
X5.5906Y-3.4872
X5.7312Y-5.1747
X5.9187Y-6.6747
X5.9187Y-7.4247
X5.925Y-7.4247
X6.1062Y-3.4872
X6.1062Y-4.4247
X6.2937Y-5.9247
X6.3406Y-3.4872
X6.4812Y-5.1747
X6.6687Y-6.6747
X6.7625Y-7.4247
X6.8562Y-4.4247
X7.0437Y-5.9247
X7.0906Y-3.4872
X7.2312Y-5.1747
X7.3312Y-3.4872
X7.4187Y-6.6747
X7.6062Y-4.4247
X7.7937Y-5.9247
X7.9812Y-3.4872
X7.9812Y-5.1747
X8.1687Y-6.6747
X8.3562Y-4.4247
X8.5437Y-5.9247
X8.7312Y-3.4872
X8.7312Y-5.1747
X8.9187Y-6.6747
X9.1062Y-4.4247
X9.1062Y-7.4247
X9.2937Y-5.9247
X9.4812Y-3.4872
X9.4812Y-5.1747
X9.575Y-7.4247
X9.6687Y-6.6747
X9.8562Y-4.4247
X10.0437Y-5.9247
X10.2312Y-3.4872
X10.2312Y-5.1747
X10.4187Y-6.6747
X10.6062Y-3.4872
X10.6062Y-4.4247
X10.7937Y-5.9247
X10.9812Y-5.1747
X11.1687Y-6.6747
X11.2687Y-3.4872
X11.3562Y-3.4872
X11.3562Y-4.4247
X11.5437Y-5.9247
X11.7312Y-5.1747
X11.9187Y-6.6747
X12.0187Y-3.4872
X12.1062Y-3.4872
X12.1062Y-4.4247
X12.2937Y-5.9247
X12.3875Y-7.4247
X12.4025Y-7.4247
X12.4812Y-5.1747
X12.6687Y-6.6747
X12.7687Y-3.4872
X12.8562Y-3.4872
X12.8562Y-4.4247
X13.0437Y-5.9247
X13.2312Y-5.1747
X13.325Y-7.4247
X13.3312Y-7.4247
X13.4187Y-3.4872
X13.4187Y-6.6747
X13.6062Y-4.4247
X13.8875Y-6.6747
X14.1687Y-5.1747
X14.175Y-5.9247
X14.2625Y-5.9247
X14.2625Y-6.6747
X14.2625Y-7.4247
X14.2687Y-7.4247
X14.3562Y-3.4872
X14.3562Y-4.4247
T9
X1.3687Y-3.0872
X1.3687Y-4.0247
X1.3687Y-4.7747
X1.3687Y-7.0247
X1.6187Y-3.1872
X1.6187Y-4.1247
X1.6187Y-4.8747
X1.6187Y-7.1247
X2.1187Y-3.0872
X2.1187Y-4.0247
X2.1187Y-4.7747
X2.1187Y-6.2747
X2.1187Y-7.0247
X2.3687Y-3.1872
X2.3687Y-4.1247
X2.3687Y-4.8747
X2.3687Y-6.3747
X2.3687Y-7.1247
X2.8687Y-3.0872
X2.8687Y-4.0247
X2.8687Y-4.7747
X2.8687Y-7.0247
X3.1187Y-3.1872
X3.1187Y-4.1247
X3.1187Y-4.8747
X3.1187Y-7.1247
X3.8Y-5.4497
X3.8062Y-3.0872
X3.8062Y-4.0247
X3.8062Y-6.2747
X3.9Y-5.1997
X3.9Y-7.0247
X3.9937Y-4.7747
X3.9937Y-7.0247
X4.0562Y-3.1872
X4.0562Y-4.1247
X4.0562Y-6.3747
X4.15Y-7.1247
X4.1812Y-4.0247
X4.2437Y-4.8747
X4.2437Y-7.1247
X4.275Y-5.5247
X4.4312Y-4.1247
X4.4625Y-6.2747
X4.525Y-5.6247
X4.5562Y-3.0872
X4.5562Y-4.0247
X4.7125Y-6.3747
X4.7437Y-5.5247
X4.7907Y-3.0872
X4.8062Y-3.1872
X4.8062Y-4.1247
X4.8375Y-6.2747
X4.8375Y-7.0247
X4.9312Y-4.7747
X4.9312Y-7.0247
X4.9937Y-5.6247
X5.0407Y-3.1872
X5.0875Y-6.3747
X5.0875Y-7.1247
X5.1812Y-4.8747
X5.1812Y-7.1247
X5.3062Y-3.0872
X5.3062Y-4.0247
X5.4937Y-5.5247
X5.5407Y-3.0872
X5.5562Y-3.1872
X5.5562Y-4.1247
X5.6812Y-4.7747
X5.7437Y-5.6247
X5.775Y-7.0247
X5.7907Y-3.1872
X5.8687Y-6.2747
X5.8687Y-7.0247
X5.9312Y-4.8747
X6.025Y-7.1247
X6.0562Y-3.0872
X6.0562Y-4.0247
X6.1187Y-6.3747
X6.1187Y-7.1247
X6.2437Y-5.5247
X6.2906Y-3.0872
X6.3062Y-3.1872
X6.3062Y-4.1247
X6.4312Y-4.7747
X6.4937Y-5.6247
X6.5406Y-3.1872
X6.6187Y-6.2747
X6.6812Y-4.8747
X6.7125Y-7.0247
X6.8062Y-4.0247
X6.8687Y-6.3747
X6.9625Y-7.1247
X6.9937Y-5.5247
X7.0406Y-3.0872
X7.0562Y-4.1247
X7.1812Y-3.0872
X7.1812Y-4.7747
X7.2437Y-5.6247
X7.2906Y-3.1872
X7.3687Y-6.2747
X7.4312Y-3.1872
X7.4312Y-4.8747
X7.5562Y-4.0247
X7.6187Y-6.3747
X7.7437Y-5.5247
X7.8062Y-4.1247
X7.9312Y-3.0872
X7.9312Y-4.7747
X7.9937Y-5.6247
X8.1187Y-6.2747
X8.1812Y-3.1872
X8.1812Y-4.8747
X8.3062Y-4.0247
X8.3687Y-6.3747
X8.4937Y-5.5247
X8.5562Y-4.1247
X8.6812Y-3.0872
X8.6812Y-4.7747
X8.7437Y-5.6247
X8.8687Y-6.2747
X8.9312Y-3.1872
X8.9312Y-4.8747
X9.0562Y-4.0247
X9.0562Y-7.0247
X9.1187Y-6.3747
X9.2437Y-5.5247
X9.3062Y-4.1247
X9.3062Y-7.1247
X9.4312Y-3.0872
X9.4312Y-4.7747
X9.4937Y-5.6247
X9.525Y-7.0247
X9.6187Y-6.2747
X9.6812Y-3.1872
X9.6812Y-4.8747
X9.775Y-7.1247
X9.8062Y-4.0247
X9.8687Y-6.3747
X9.9937Y-5.5247
X10.0562Y-4.1247
X10.1812Y-3.0872
X10.1812Y-4.7747
X10.2437Y-5.6247
X10.3687Y-6.2747
X10.4312Y-3.1872
X10.4312Y-4.8747
X10.5562Y-3.0872
X10.5562Y-4.0247
X10.6187Y-6.3747
X10.7437Y-5.5247
X10.8062Y-3.1872
X10.8062Y-4.1247
X10.9312Y-4.7747
X10.9937Y-5.6247
X11.1187Y-6.2747
X11.1197Y-3.0872
X11.1812Y-4.8747
X11.3062Y-3.0872
X11.3062Y-4.0247
X11.3687Y-6.3747
X11.3697Y-3.1872
X11.4937Y-5.5247
X11.5562Y-3.1872
X11.5562Y-4.1247
X11.6812Y-4.7747
X11.7437Y-5.6247
X11.8687Y-3.0872
X11.8687Y-6.2747
X11.9312Y-4.8747
X12.0562Y-3.0872
X12.0562Y-4.0247
X12.1187Y-3.1872
X12.1187Y-6.3747
X12.2437Y-5.5247
X12.2437Y-7.0247
X12.3062Y-3.1872
X12.3062Y-4.1247
X12.3375Y-7.0247
X12.4312Y-4.7747
X12.4937Y-5.6247
X12.4937Y-7.1247
X12.5875Y-7.1247
X12.6187Y-3.0872
X12.6187Y-6.2747
X12.6812Y-4.8747
X12.8062Y-3.0872
X12.8062Y-4.0247
X12.8687Y-3.1872
X12.8687Y-6.3747
X12.9937Y-5.5247
X13.0562Y-3.1872
X13.0562Y-4.1247
X13.1812Y-4.7747
X13.1812Y-7.0247
X13.2437Y-5.6247
X13.275Y-7.0247
X13.3687Y-3.0872
X13.3687Y-6.2747
X13.4312Y-4.8747
X13.4312Y-7.1247
X13.525Y-7.1247
X13.5562Y-4.0247
X13.6187Y-3.1872
X13.6187Y-6.3747
X13.8062Y-4.1247
X13.8375Y-6.2747
X14.025Y-5.5247
X14.0875Y-6.3747
X14.1187Y-4.7747
X14.1187Y-7.0247
X14.2125Y-5.5247
X14.2125Y-6.2747
X14.2125Y-7.0247
X14.275Y-5.6247
X14.3062Y-3.0872
X14.3062Y-4.0247
X14.3687Y-4.8747
X14.3687Y-7.1247
X14.4625Y-5.6247
X14.4625Y-6.3747
X14.4625Y-7.1247
X14.5562Y-3.1872
X14.5562Y-4.1247
T10
X4.2236Y-3.6804
T5
G00X3.2682Y-2.735
M15
G01X3.2682Y-2.7587
M16
G05
G00X3.2682Y-2.8906
M15
G01X3.2682Y-2.9339
M16
G05
G00X3.6068Y-2.735
M15
G01X3.6068Y-2.7587
M16
G05
G00X3.6068Y-2.8906
M15
G01X3.6068Y-2.9339
M16
G05
T11
G00X2.7669Y-6.515
M15
G01X2.7669Y-6.6725
M16
G05
T0
M30
