%TF.GenerationSoftware,KiCad,Pcbnew,(6.0.0-0)*%
%TF.CreationDate,2022-01-01T21:21:09+01:00*%
%TF.ProjectId,athena,61746865-6e61-42e6-9b69-6361645f7063,V1.0.6*%
%TF.SameCoordinates,PX15cf7a1dPY4fa0663*%
%TF.FileFunction,Profile,NP*%
%FSLAX46Y46*%
G04 Gerber Fmt 4.6, Leading zero omitted, Abs format (unit mm)*
G04 Created by KiCad (PCBNEW (6.0.0-0)) date 2022-01-01 21:21:09*
%MOMM*%
%LPD*%
G01*
G04 APERTURE LIST*
%TA.AperFunction,Profile*%
%ADD10C,0.100000*%
%TD*%
%TA.AperFunction,Profile*%
%ADD11C,0.200000*%
%TD*%
G04 APERTURE END LIST*
D10*
X296005250Y-190491999D02*
G75*
G03*
X292957250Y-190491999I-1524000J0D01*
G01*
X188559811Y-190932001D02*
G75*
G03*
X181227687Y-190931997I-3666063J-1601661D01*
G01*
X140934811Y-190932001D02*
G75*
G03*
X141851322Y-191532001I916704J400288D01*
G01*
X82113249Y-69469996D02*
X82113252Y-76969500D01*
X176942750Y-190491999D02*
X176942750Y-191031999D01*
X195992750Y-191031999D02*
G75*
G03*
X196492749Y-191531998I499998J-1D01*
G01*
X323720623Y-189016421D02*
G75*
G03*
X318150169Y-190932264I-1904374J-3519067D01*
G01*
X299628052Y-174459104D02*
G75*
G03*
X300335157Y-174751997I707109J707112D01*
G01*
X29281249Y-188531999D02*
G75*
G03*
X32281249Y-191531999I3000001J1D01*
G01*
X289718749Y-171052000D02*
G75*
G03*
X286748901Y-172282151I1J-4200003D01*
G01*
X217220552Y-191531998D02*
G75*
G03*
X218137063Y-190931998I-193J1000288D01*
G01*
X288194750Y-190491999D02*
X288194750Y-191031999D01*
X305241060Y-190932000D02*
G75*
G03*
X297908936Y-190931996I-3666063J-1601661D01*
G01*
X176942750Y-191031999D02*
G75*
G03*
X177442749Y-191531998I499998J-1D01*
G01*
X151426824Y-75469999D02*
X161311672Y-75469998D01*
X195992750Y-190491999D02*
G75*
G03*
X192944750Y-190491999I-1524000J0D01*
G01*
X370943749Y-191532499D02*
G75*
G03*
X373943749Y-188532499I-1J3000001D01*
G01*
X283864838Y-174751999D02*
X200322658Y-174751997D01*
X299628052Y-174459104D02*
X297451097Y-172282150D01*
X291242750Y-191031999D02*
G75*
G03*
X291742749Y-191531998I499998J-1D01*
G01*
X132686177Y-191531999D02*
G75*
G03*
X133602688Y-190931999I-193J1000288D01*
G01*
X350346937Y-76069999D02*
G75*
G03*
X357679060Y-76070001I3666062J1601663D01*
G01*
X256561672Y-75469998D02*
X170476824Y-75469999D01*
X206419186Y-190932000D02*
G75*
G03*
X199087062Y-190931996I-3666063J-1601661D01*
G01*
X180311177Y-191531999D02*
G75*
G03*
X181227688Y-190931999I-193J1000288D01*
G01*
X225469186Y-190932000D02*
G75*
G03*
X226385697Y-191532000I916704J400288D01*
G01*
X296743991Y-172989257D02*
G75*
G03*
X294481249Y-172052000I-2262736J-2262734D01*
G01*
X180311176Y-191531999D02*
X177442749Y-191531998D01*
X196731491Y-172989257D02*
G75*
G03*
X192206007Y-172989257I-2262742J-2262743D01*
G01*
X199201338Y-175459104D02*
X196731491Y-172989257D01*
X297451097Y-172282150D02*
G75*
G03*
X294481249Y-171052001I-2969835J-2969825D01*
G01*
X317233050Y-191531998D02*
X306157572Y-191532000D01*
X330243576Y-190932264D02*
G75*
G03*
X324673123Y-189016422I-3666080J-1603226D01*
G01*
X299927213Y-175751999D02*
X337418749Y-175751999D01*
X217220551Y-191531998D02*
X207335698Y-191532000D01*
X29281249Y-188531999D02*
X29281249Y-78469499D01*
X283864838Y-174751999D02*
G75*
G03*
X284571945Y-174459107I0J1000003D01*
G01*
X287694751Y-191531998D02*
X286980249Y-191531998D01*
X188614838Y-174751999D02*
G75*
G03*
X189321945Y-174459107I0J1000003D01*
G01*
X50447311Y-190932001D02*
G75*
G03*
X43115187Y-190931997I-3666063J-1601661D01*
G01*
X284986156Y-175459105D02*
X287456007Y-172989257D01*
X176942750Y-190491999D02*
G75*
G03*
X173894750Y-190491999I-1524000J0D01*
G01*
X269384438Y-76069999D02*
G75*
G03*
X275907999Y-77269051I3666166J1600574D01*
G01*
X177681491Y-172989257D02*
G75*
G03*
X173156007Y-172989257I-2262742J-2262743D01*
G01*
X296992425Y-191531998D02*
X296505249Y-191531998D01*
X373943749Y-79355357D02*
X373943749Y-188532499D01*
X82679927Y-191531999D02*
G75*
G03*
X83596438Y-190931999I-193J1000288D01*
G01*
X358595574Y-75469999D02*
X370943749Y-75469999D01*
X206419186Y-190932000D02*
G75*
G03*
X207335697Y-191532000I916704J400288D01*
G01*
X92513249Y-69469999D02*
X92513246Y-76969503D01*
X300335157Y-174751997D02*
X337418749Y-174751999D01*
X42198676Y-191531999D02*
X32281249Y-191531999D01*
X82679926Y-191531999D02*
X51363823Y-191532001D01*
X170476824Y-75469997D02*
G75*
G03*
X169560309Y-76069996I191J-1000293D01*
G01*
X113918749Y-94900749D02*
G75*
G03*
X113918749Y-95900749I0J-500000D01*
G01*
X370943749Y-191532499D02*
X331160087Y-191532264D01*
X94513245Y-75470000D02*
G75*
G03*
X93513245Y-76469998I-1J-999999D01*
G01*
X199615552Y-174459104D02*
X197438597Y-172282150D01*
X81113252Y-76469997D02*
X81113252Y-76969496D01*
X299213838Y-175459104D02*
G75*
G03*
X299920943Y-175751997I707109J707112D01*
G01*
X277336746Y-77269052D02*
G75*
G03*
X275908000Y-77269052I-714373J-699565D01*
G01*
X333678187Y-76069999D02*
G75*
G03*
X332761675Y-75469999I-916704J-400288D01*
G01*
X170271945Y-174459106D02*
X172448901Y-172282151D01*
X169564838Y-174751999D02*
X141918749Y-174751999D01*
X192444751Y-191531998D02*
G75*
G03*
X192944750Y-191031999I1J499998D01*
G01*
X292957250Y-190491999D02*
X292957250Y-191031999D01*
X284279049Y-175751998D02*
G75*
G03*
X284986156Y-175459106I0J1000003D01*
G01*
X180565552Y-174459104D02*
X178388597Y-172282151D01*
X62215687Y-76071661D02*
G75*
G03*
X61299175Y-75471661I-916704J-400288D01*
G01*
X173394751Y-191531998D02*
G75*
G03*
X173894750Y-191031999I1J499998D01*
G01*
X284571945Y-174459106D02*
X286748901Y-172282151D01*
X192944750Y-190491999D02*
X192944750Y-191031999D01*
X305241060Y-190932000D02*
G75*
G03*
X306157571Y-191532000I916704J400288D01*
G01*
X284776824Y-75469999D02*
X332761672Y-75469999D01*
X365918749Y-95900749D02*
G75*
G03*
X365918749Y-94900749I0J500000D01*
G01*
X257478185Y-76069997D02*
G75*
G03*
X256561672Y-75469998I-916703J-400289D01*
G01*
X83113246Y-68469999D02*
X91513252Y-68470002D01*
X162228185Y-76069997D02*
G75*
G03*
X161311672Y-75469998I-916703J-400289D01*
G01*
X50447311Y-190932001D02*
G75*
G03*
X51363822Y-191532001I916704J400288D01*
G01*
X70464324Y-75471662D02*
X80113253Y-75469997D01*
X195992750Y-190491999D02*
X195992750Y-191031999D01*
X265726824Y-75469997D02*
G75*
G03*
X264810309Y-76069996I191J-1000293D01*
G01*
X373943749Y-78469999D02*
G75*
G03*
X370943749Y-75469999I-3000001J-1D01*
G01*
X169564838Y-174751999D02*
G75*
G03*
X170271945Y-174459107I0J1000003D01*
G01*
X162228187Y-76069998D02*
G75*
G03*
X169560310Y-76070000I3666062J1601663D01*
G01*
X225469186Y-190932000D02*
G75*
G03*
X218137062Y-190931996I-3666063J-1601661D01*
G01*
X365918749Y-94900749D02*
X113918749Y-94900749D01*
X141918749Y-174751999D02*
G75*
G03*
X141918749Y-175751999I0J-500000D01*
G01*
X317233050Y-191531998D02*
G75*
G03*
X318150170Y-190932264I-192J1001395D01*
G01*
X189321945Y-174459106D02*
X191498901Y-172282151D01*
X294481249Y-171052001D02*
X289718749Y-171052000D01*
X296005250Y-191031999D02*
G75*
G03*
X296505249Y-191531998I499998J-1D01*
G01*
X169979049Y-175751998D02*
X141918749Y-175751999D01*
X198170551Y-191531998D02*
X196492749Y-191531998D01*
X358595574Y-75469998D02*
G75*
G03*
X357679059Y-76069997I191J-1000293D01*
G01*
X257478187Y-76069998D02*
G75*
G03*
X264810310Y-76070000I3666062J1601663D01*
G01*
X90928561Y-190932001D02*
G75*
G03*
X83596437Y-190931997I-3666063J-1601661D01*
G01*
X143178187Y-76069998D02*
G75*
G03*
X150510310Y-76070000I3666062J1601663D01*
G01*
X296992426Y-191531998D02*
G75*
G03*
X297908937Y-190931998I-193J1000288D01*
G01*
X189736156Y-175459105D02*
X192206007Y-172989257D01*
X178388597Y-172282151D02*
G75*
G03*
X172448901Y-172282151I-2969848J-2969849D01*
G01*
X197438597Y-172282151D02*
G75*
G03*
X191498901Y-172282151I-2969848J-2969849D01*
G01*
X43165687Y-76071661D02*
G75*
G03*
X50497810Y-76071663I3666062J1601663D01*
G01*
X180151338Y-175459104D02*
G75*
G03*
X180858443Y-175751997I707109J707112D01*
G01*
X90928561Y-190932001D02*
G75*
G03*
X91845072Y-191532001I916704J400288D01*
G01*
X42198677Y-191531999D02*
G75*
G03*
X43115188Y-190931999I-193J1000288D01*
G01*
X113918749Y-95900749D02*
X365918749Y-95900749D01*
X81113250Y-76469996D02*
G75*
G03*
X80113253Y-75469997I-999998J1D01*
G01*
X199615552Y-174459104D02*
G75*
G03*
X200322657Y-174751997I707109J707112D01*
G01*
X169979049Y-175751998D02*
G75*
G03*
X170686156Y-175459106I0J1000003D01*
G01*
X170686156Y-175459105D02*
X173156007Y-172989257D01*
X43165687Y-76071661D02*
G75*
G03*
X42249175Y-75471661I-916704J-400288D01*
G01*
X105078187Y-76071661D02*
G75*
G03*
X104161675Y-75471661I-916704J-400288D01*
G01*
X199201338Y-175459104D02*
G75*
G03*
X199908443Y-175751997I707109J707112D01*
G01*
X143178185Y-76069997D02*
G75*
G03*
X142261672Y-75469998I-916703J-400289D01*
G01*
X337418749Y-175751999D02*
G75*
G03*
X337418749Y-174751999I0J500000D01*
G01*
X180151338Y-175459104D02*
X177681491Y-172989257D01*
X350346937Y-76069999D02*
G75*
G03*
X349430425Y-75469999I-916704J-400288D01*
G01*
X192444751Y-191531998D02*
X189476323Y-191532001D01*
X113326824Y-75471660D02*
G75*
G03*
X112410309Y-76071659I191J-1000293D01*
G01*
X269384437Y-76069998D02*
G75*
G03*
X268467925Y-75469998I-916704J-400288D01*
G01*
X265726823Y-75470000D02*
X268467925Y-75469998D01*
X173394751Y-191531998D02*
X141851323Y-191532001D01*
X188614838Y-174751999D02*
X181272658Y-174751997D01*
X299213838Y-175459104D02*
X296743991Y-172989257D01*
X132686176Y-191531999D02*
X91845073Y-191532001D01*
X291242750Y-190491999D02*
X291242750Y-191031999D01*
X81113252Y-76969496D02*
G75*
G03*
X82113252Y-76969500I500000J-2D01*
G01*
X277336749Y-77269051D02*
G75*
G03*
X283860310Y-76069999I2857395J2799626D01*
G01*
X51414323Y-75471662D02*
G75*
G03*
X50497810Y-76071661I191J-1000290D01*
G01*
X291242750Y-190491999D02*
G75*
G03*
X288194750Y-190491999I-1524000J0D01*
G01*
X189029049Y-175751998D02*
X180858444Y-175751997D01*
X198170552Y-191531998D02*
G75*
G03*
X199087063Y-190931998I-193J1000288D01*
G01*
X292457251Y-191531998D02*
G75*
G03*
X292957250Y-191031999I1J499998D01*
G01*
X296005250Y-190491999D02*
X296005250Y-191031999D01*
X292457251Y-191531998D02*
X291742749Y-191531998D01*
X323720623Y-189016422D02*
G75*
G03*
X324673123Y-189016422I476250J878971D01*
G01*
X105078187Y-76071661D02*
G75*
G03*
X112410310Y-76071663I3666062J1601663D01*
G01*
X341926823Y-75470000D02*
G75*
G03*
X341010310Y-76069999I191J-1000290D01*
G01*
X173894750Y-190491999D02*
X173894750Y-191031999D01*
X373943749Y-78469999D02*
X373943749Y-79355357D01*
X32281249Y-75469499D02*
G75*
G03*
X29281249Y-78469499I1J-3000001D01*
G01*
X92513248Y-69469998D02*
G75*
G03*
X91513252Y-68470002I-999996J0D01*
G01*
X140934811Y-190932001D02*
G75*
G03*
X133602687Y-190931997I-3666063J-1601661D01*
G01*
X287694751Y-191531998D02*
G75*
G03*
X288194750Y-191031999I1J499998D01*
G01*
X341926823Y-75470001D02*
X349430422Y-75469999D01*
X32281249Y-75469499D02*
X42249173Y-75471662D01*
X142261673Y-75469999D02*
X113326824Y-75471662D01*
X62215687Y-76071661D02*
G75*
G03*
X69547810Y-76071663I3666062J1601663D01*
G01*
X284279049Y-175751998D02*
X199908444Y-175751997D01*
X333678187Y-76069999D02*
G75*
G03*
X341010310Y-76070001I3666062J1601663D01*
G01*
X289718749Y-172051999D02*
G75*
G03*
X287456007Y-172989257I-2J-3199997D01*
G01*
X189029049Y-175751998D02*
G75*
G03*
X189736156Y-175459106I0J1000003D01*
G01*
X70464324Y-75471660D02*
G75*
G03*
X69547809Y-76071659I191J-1000293D01*
G01*
X83113245Y-68470000D02*
G75*
G03*
X82113249Y-69469996I0J-999996D01*
G01*
X92513246Y-76969503D02*
G75*
G03*
X93513246Y-76969499I500000J2D01*
G01*
X294481249Y-172052000D02*
X289718749Y-172051999D01*
X188559811Y-190932001D02*
G75*
G03*
X189476322Y-191532001I916704J400288D01*
G01*
X180565552Y-174459104D02*
G75*
G03*
X181272657Y-174751997I707109J707112D01*
G01*
X284776823Y-75469999D02*
G75*
G03*
X283860310Y-76069998I191J-1000290D01*
G01*
X93513246Y-76470000D02*
X93513246Y-76969499D01*
X94513245Y-75470000D02*
X104161672Y-75471661D01*
X286980249Y-191531998D02*
X226385698Y-191532000D01*
X51414324Y-75471662D02*
X61299172Y-75471661D01*
X330243574Y-190932266D02*
G75*
G03*
X331160087Y-191532264I916704J400291D01*
G01*
X151426824Y-75469997D02*
G75*
G03*
X150510309Y-76069996I191J-1000293D01*
G01*
D11*
X369252082Y-83494499D02*
G75*
G03*
X369252082Y-83494499I-3333333J0D01*
G01*
X360918749Y-83494499D02*
X370918749Y-83494499D01*
X365918749Y-78494499D02*
X365918749Y-88494499D01*
M02*
