M48
; DRILL file {KiCad (6.0.0-0)} date 2022 January 01, Saturday 21:21:09
; FORMAT={-:-/ absolute / inch / decimal}
; #@! TF.CreationDate,2022-01-01T21:21:09+01:00
; #@! TF.GenerationSoftware,Kicad,Pcbnew,(6.0.0-0)
; #@! TF.FileFunction,NonPlated,1,2,NPTH
FMAT,2
INCH
; #@! TA.AperFunction,NonPlated,NPTH,ComponentDrill
T1C0.0256
; #@! TA.AperFunction,NonPlated,NPTH,ComponentDrill
T2C0.0670
; #@! TA.AperFunction,NonPlated,NPTH,ComponentDrill
T3C0.1200
; #@! TA.AperFunction,NonPlated,NPTH,ComponentDrill
T4C0.1570
%
G90
G05
T1
X3.3237Y-2.8905
X3.5513Y-2.8905
T2
X1.2687Y-3.2872
X1.2687Y-4.2247
X1.2687Y-4.9747
X1.2687Y-7.2247
X1.6687Y-3.2872
X1.6687Y-4.2247
X1.6687Y-4.9747
X1.6687Y-7.2247
X2.0187Y-3.2872
X2.0187Y-4.2247
X2.0187Y-4.9747
X2.0187Y-6.4747
X2.0187Y-7.2247
X2.4187Y-3.2872
X2.4187Y-4.2247
X2.4187Y-4.9747
X2.4187Y-6.4747
X2.4187Y-7.2247
X2.7687Y-3.2872
X2.7687Y-4.2247
X2.7687Y-4.9747
X2.7687Y-7.2247
X3.1687Y-3.2872
X3.1687Y-4.2247
X3.1687Y-4.9747
X3.1687Y-7.2247
X3.7062Y-3.2872
X3.7062Y-4.2247
X3.7062Y-6.4747
X3.8Y-7.2247
X3.8937Y-4.9747
X3.8937Y-7.2247
X4.0Y-5.1497
X4.0Y-5.5497
X4.0812Y-4.2247
X4.1062Y-3.2872
X4.1062Y-4.2247
X4.1062Y-6.4747
X4.175Y-5.7247
X4.2Y-7.2247
X4.2937Y-4.9747
X4.2937Y-7.2247
X4.3625Y-6.4747
X4.4562Y-3.2872
X4.4562Y-4.2247
X4.4812Y-4.2247
X4.575Y-5.7247
X4.6437Y-5.7247
X4.6907Y-3.2872
X4.7375Y-6.4747
X4.7375Y-7.2247
X4.7625Y-6.4747
X4.8312Y-4.9747
X4.8312Y-7.2247
X4.8562Y-3.2872
X4.8562Y-4.2247
X5.0437Y-5.7247
X5.0907Y-3.2872
X5.1375Y-6.4747
X5.1375Y-7.2247
X5.2062Y-3.2872
X5.2062Y-4.2247
X5.2312Y-4.9747
X5.2312Y-7.2247
X5.3937Y-5.7247
X5.4407Y-3.2872
X5.5812Y-4.9747
X5.6062Y-3.2872
X5.6062Y-4.2247
X5.675Y-7.2247
X5.7687Y-6.4747
X5.7687Y-7.2247
X5.7937Y-5.7247
X5.8407Y-3.2872
X5.9562Y-3.2872
X5.9562Y-4.2247
X5.9812Y-4.9747
X6.075Y-7.2247
X6.1437Y-5.7247
X6.1687Y-6.4747
X6.1687Y-7.2247
X6.1906Y-3.2872
X6.3312Y-4.9747
X6.3562Y-3.2872
X6.3562Y-4.2247
X6.5187Y-6.4747
X6.5437Y-5.7247
X6.5906Y-3.2872
X6.6125Y-7.2247
X6.7062Y-4.2247
X6.7312Y-4.9747
X6.8937Y-5.7247
X6.9187Y-6.4747
X6.9406Y-3.2872
X7.0125Y-7.2247
X7.0812Y-3.2872
X7.0812Y-4.9747
X7.1062Y-4.2247
X7.2687Y-6.4747
X7.2937Y-5.7247
X7.3406Y-3.2872
X7.4562Y-4.2247
X7.4812Y-3.2872
X7.4812Y-4.9747
X7.6437Y-5.7247
X7.6687Y-6.4747
X7.8312Y-3.2872
X7.8312Y-4.9747
X7.8562Y-4.2247
X8.0187Y-6.4747
X8.0437Y-5.7247
X8.2062Y-4.2247
X8.2312Y-3.2872
X8.2312Y-4.9747
X8.3937Y-5.7247
X8.4187Y-6.4747
X8.5812Y-3.2872
X8.5812Y-4.9747
X8.6062Y-4.2247
X8.7687Y-6.4747
X8.7937Y-5.7247
X8.9562Y-4.2247
X8.9562Y-7.2247
X8.9812Y-3.2872
X8.9812Y-4.9747
X9.1437Y-5.7247
X9.1687Y-6.4747
X9.3312Y-3.2872
X9.3312Y-4.9747
X9.3562Y-4.2247
X9.3562Y-7.2247
X9.425Y-7.2247
X9.5187Y-6.4747
X9.5437Y-5.7247
X9.7062Y-4.2247
X9.7312Y-3.2872
X9.7312Y-4.9747
X9.825Y-7.2247
X9.8937Y-5.7247
X9.9187Y-6.4747
X10.0812Y-3.2872
X10.0812Y-4.9747
X10.1062Y-4.2247
X10.2687Y-6.4747
X10.2937Y-5.7247
X10.4562Y-3.2872
X10.4562Y-4.2247
X10.4812Y-3.2872
X10.4812Y-4.9747
X10.6437Y-5.7247
X10.6687Y-6.4747
X10.8312Y-4.9747
X10.8562Y-3.2872
X10.8562Y-4.2247
X11.0187Y-6.4747
X11.0197Y-3.2872
X11.0437Y-5.7247
X11.2062Y-3.2872
X11.2062Y-4.2247
X11.2312Y-4.9747
X11.3937Y-5.7247
X11.4187Y-6.4747
X11.4197Y-3.2872
X11.5812Y-4.9747
X11.6062Y-3.2872
X11.6062Y-4.2247
X11.7687Y-3.2872
X11.7687Y-6.4747
X11.7937Y-5.7247
X11.9562Y-3.2872
X11.9562Y-4.2247
X11.9812Y-4.9747
X12.1437Y-5.7247
X12.1437Y-7.2247
X12.1687Y-3.2872
X12.1687Y-6.4747
X12.2375Y-7.2247
X12.3312Y-4.9747
X12.3562Y-3.2872
X12.3562Y-4.2247
X12.5187Y-3.2872
X12.5187Y-6.4747
X12.5437Y-5.7247
X12.5437Y-7.2247
X12.6375Y-7.2247
X12.7062Y-3.2872
X12.7062Y-4.2247
X12.7312Y-4.9747
X12.8937Y-5.7247
X12.9187Y-3.2872
X12.9187Y-6.4747
X13.0812Y-4.9747
X13.0812Y-7.2247
X13.1062Y-3.2872
X13.1062Y-4.2247
X13.175Y-7.2247
X13.2687Y-3.2872
X13.2687Y-6.4747
X13.2937Y-5.7247
X13.4562Y-4.2247
X13.4812Y-4.9747
X13.4812Y-7.2247
X13.575Y-7.2247
X13.6687Y-3.2872
X13.6687Y-6.4747
X13.7375Y-6.4747
X13.8562Y-4.2247
X13.925Y-5.7247
X14.0187Y-4.9747
X14.0187Y-7.2247
X14.1125Y-5.7247
X14.1125Y-6.4747
X14.1125Y-7.2247
X14.1375Y-6.4747
X14.2062Y-3.2872
X14.2062Y-4.2247
X14.325Y-5.7247
X14.4187Y-4.9747
X14.4187Y-7.2247
X14.5125Y-5.7247
X14.5125Y-6.4747
X14.5125Y-7.2247
X14.6062Y-3.2872
X14.6062Y-4.2247
T3
X3.725Y-4.8797
X3.725Y-5.8197
X3.8112Y-3.9497
X3.905Y-5.9997
X4.0925Y-6.1997
X4.7512Y-3.9497
X4.845Y-5.9997
X5.0325Y-6.1997
X6.9062Y-7.4997
X7.655Y-7.4997
X11.4062Y-7.4997
X11.595Y-7.4997
X13.4675Y-6.1997
X14.4075Y-6.1997
T4
X1.4687Y-3.2872
X1.4687Y-4.2247
X1.4687Y-4.9747
X1.4687Y-7.2247
X2.2187Y-3.2872
X2.2187Y-4.2247
X2.2187Y-4.9747
X2.2187Y-6.4747
X2.2187Y-7.2247
X2.9687Y-3.2872
X2.9687Y-4.2247
X2.9687Y-4.9747
X2.9687Y-7.2247
X3.8112Y-4.5497
X3.905Y-5.3997
X3.9062Y-3.2872
X3.9062Y-4.2247
X3.9062Y-6.4747
X4.0Y-5.3497
X4.0Y-7.2247
X4.0925Y-6.7997
X4.0937Y-4.9747
X4.0937Y-7.2247
X4.2812Y-4.2247
X4.325Y-4.8797
X4.325Y-5.8197
X4.375Y-5.7247
X4.5625Y-6.4747
X4.6562Y-3.2872
X4.6562Y-4.2247
X4.7512Y-4.5497
X4.8437Y-5.7247
X4.845Y-5.3997
X4.8907Y-3.2872
X4.9375Y-6.4747
X4.9375Y-7.2247
X5.0312Y-4.9747
X5.0312Y-7.2247
X5.0325Y-6.7997
X5.4062Y-3.2872
X5.4062Y-4.2247
X5.5937Y-5.7247
X5.6407Y-3.2872
X5.7812Y-4.9747
X5.875Y-7.2247
X5.9687Y-6.4747
X5.9687Y-7.2247
X6.1562Y-3.2872
X6.1562Y-4.2247
X6.3437Y-5.7247
X6.3906Y-3.2872
X6.5312Y-4.9747
X6.7187Y-6.4747
X6.8125Y-7.2247
X6.9062Y-4.2247
X6.9062Y-6.8997
X7.0937Y-5.7247
X7.1406Y-3.2872
X7.2812Y-3.2872
X7.2812Y-4.9747
X7.4687Y-6.4747
X7.655Y-6.8997
X7.6562Y-4.2247
X7.8437Y-5.7247
X8.0312Y-3.2872
X8.0312Y-4.9747
X8.2187Y-6.4747
X8.4062Y-4.2247
X8.5937Y-5.7247
X8.7812Y-3.2872
X8.7812Y-4.9747
X8.9687Y-6.4747
X9.1562Y-4.2247
X9.1562Y-7.2247
X9.3437Y-5.7247
X9.5312Y-3.2872
X9.5312Y-4.9747
X9.625Y-7.2247
X9.7187Y-6.4747
X9.9062Y-4.2247
X10.0937Y-5.7247
X10.2812Y-3.2872
X10.2812Y-4.9747
X10.4687Y-6.4747
X10.6562Y-3.2872
X10.6562Y-4.2247
X10.8437Y-5.7247
X11.0312Y-4.9747
X11.2187Y-6.4747
X11.2197Y-3.2872
X11.4062Y-3.2872
X11.4062Y-4.2247
X11.4062Y-6.8997
X11.5937Y-5.7247
X11.595Y-6.8997
X11.7812Y-4.9747
X11.9687Y-3.2872
X11.9687Y-6.4747
X12.1562Y-3.2872
X12.1562Y-4.2247
X12.3437Y-5.7247
X12.3437Y-7.2247
X12.4375Y-7.2247
X12.5312Y-4.9747
X12.7187Y-3.2872
X12.7187Y-6.4747
X12.9062Y-3.2872
X12.9062Y-4.2247
X13.0937Y-5.7247
X13.2812Y-4.9747
X13.2812Y-7.2247
X13.375Y-7.2247
X13.4675Y-6.7997
X13.4687Y-3.2872
X13.4687Y-6.4747
X13.6562Y-4.2247
X13.9375Y-6.4747
X14.125Y-5.7247
X14.2187Y-4.9747
X14.2187Y-7.2247
X14.3125Y-5.7247
X14.3125Y-6.4747
X14.3125Y-7.2247
X14.4062Y-3.2872
X14.4062Y-4.2247
X14.4075Y-6.7997
T0
M30
